<svg width="271" height="483" viewBox="0 0 271 483" fill="none" xmlns="http://www.w3.org/2000/svg">
<mask id="path-1-inside-1_4304_5413" fill="white">
<path d="M271 83.7964V97.3203V385.68V399.204H257.445H247.322H245.949V405.966H244.119V412.727H241.831V419.489H238.914V426.251H235.426V433.013H231.136V439.775H226.103V446.537H220.008V453.299H212.548V460.061H203.397V466.823H192.648V473.585H181.055V478.297H168.387V481.719H155.286V483H142.318H142.238H141.732H129.27H128.763H128.683H115.715V481.719H102.615V478.297H89.9464V473.585H78.3532V466.823H67.6043V460.061H58.453V453.299H50.9923V446.537H44.8984V439.775H39.8651V433.013H35.5755V426.251H32.0867V419.489H29.1698V412.727H26.8822V405.966H25.0518V399.204H23.679H13.556H0.00105598V385.68V97.3203V83.7964H13.556H23.679H25.0518V77.0344H26.8822V70.2725H29.1698V63.5106H32.0867V56.7486H35.5755V49.9866H39.8651V43.2247H44.8984V36.4631H50.9923V29.7008H58.453V22.9388H67.6043V16.1772H78.3532V9.41528H89.9464V4.70258H102.615V1.28049H115.715V0H128.683H128.763H129.27H141.732H142.238H142.318H155.286V1.28049H168.387V4.70258H181.055V9.41528H192.648V16.1772H203.397V22.9388H212.548V29.7008H220.008V36.4631H226.103V43.2247H231.136V49.9866H235.426V56.7486H238.914V63.5106H241.831V70.2725H244.119V77.0344H245.949V83.7964H247.322H257.445H271Z"/>
</mask>
<path d="M271 83.7964V97.3203V385.68V399.204H257.445H247.322H245.949V405.966H244.119V412.727H241.831V419.489H238.914V426.251H235.426V433.013H231.136V439.775H226.103V446.537H220.008V453.299H212.548V460.061H203.397V466.823H192.648V473.585H181.055V478.297H168.387V481.719H155.286V483H142.318H142.238H141.732H129.27H128.763H128.683H115.715V481.719H102.615V478.297H89.9464V473.585H78.3532V466.823H67.6043V460.061H58.453V453.299H50.9923V446.537H44.8984V439.775H39.8651V433.013H35.5755V426.251H32.0867V419.489H29.1698V412.727H26.8822V405.966H25.0518V399.204H23.679H13.556H0.00105598V385.68V97.3203V83.7964H13.556H23.679H25.0518V77.0344H26.8822V70.2725H29.1698V63.5106H32.0867V56.7486H35.5755V49.9866H39.8651V43.2247H44.8984V36.4631H50.9923V29.7008H58.453V22.9388H67.6043V16.1772H78.3532V9.41528H89.9464V4.70258H102.615V1.28049H115.715V0H128.683H128.763H129.27H141.732H142.238H142.318H155.286V1.28049H168.387V4.70258H181.055V9.41528H192.648V16.1772H203.397V22.9388H212.548V29.7008H220.008V36.4631H226.103V43.2247H231.136V49.9866H235.426V56.7486H238.914V63.5106H241.831V70.2725H244.119V77.0344H245.949V83.7964H247.322H257.445H271Z" fill="white"/>
<path d="M0.00105598 97.8203H0V96.8203H0.00105598V97.8203ZM0.00105598 386.18H0V385.18H0.00105598V386.18ZM271 83.7964V82.7964H272V83.7964H271ZM245.949 83.7964V84.7964H244.949V83.7964H245.949ZM245.949 77.0344V76.0344H246.949V77.0344H245.949ZM244.119 77.0344V78.0344H243.119V77.0344H244.119ZM244.119 70.2725V69.2725H245.119V70.2725H244.119ZM241.831 70.2725V71.2725H240.831V70.2725H241.831ZM241.831 63.5106V62.5106H242.831V63.5106H241.831ZM238.914 63.5106V64.5106H237.914V63.5106H238.914ZM238.914 56.7486V55.7486H239.914V56.7486H238.914ZM235.426 56.7486V57.7486H234.426V56.7486H235.426ZM235.426 49.9866V48.9866H236.426V49.9866H235.426ZM231.136 49.9866V50.9866H230.136V49.9866H231.136ZM231.136 43.2247V42.2247H232.136V43.2247H231.136ZM226.103 43.2247V44.2247H225.103V43.2247H226.103ZM226.103 36.4631V35.4631H227.103V36.4631H226.103ZM220.008 36.4631V37.4631H219.008V36.4631H220.008ZM220.008 29.7008V28.7008H221.008V29.7008H220.008ZM212.548 29.7008V30.7008H211.548V29.7008H212.548ZM212.548 22.9388V21.9388H213.548V22.9388H212.548ZM203.397 22.9388V23.9388H202.397V22.9388H203.397ZM203.397 16.1772V15.1772H204.397V16.1772H203.397ZM192.648 16.1772V17.1772H191.648V16.1772H192.648ZM192.648 9.41528V8.41528H193.648V9.41528H192.648ZM181.055 9.41528V10.4153H180.055V9.41528H181.055ZM181.055 4.70258V3.70258H182.055V4.70258H181.055ZM168.387 4.70258V5.70258H167.387V4.70258H168.387ZM168.387 1.28049V0.280487H169.387V1.28049H168.387ZM155.286 1.28049V2.28049H154.286V1.28049H155.286ZM155.286 0V-1H156.286V0H155.286ZM115.715 0H114.715V-1H115.715V0ZM115.715 1.28049H116.715V2.28049H115.715V1.28049ZM102.615 1.28049H101.615V0.280487H102.615V1.28049ZM102.615 4.70258H103.615V5.70258H102.615V4.70258ZM89.9464 4.70258H88.9464V3.70258H89.9464V4.70258ZM89.9464 9.41528H90.9464V10.4153H89.9464V9.41528ZM78.3532 9.41528H77.3532V8.41528H78.3532V9.41528ZM78.3532 16.1772H79.3532V17.1772H78.3532V16.1772ZM67.6043 16.1772H66.6043V15.1772H67.6043V16.1772ZM67.6043 22.9388H68.6043V23.9388H67.6043V22.9388ZM58.453 22.9388H57.453V21.9388H58.453V22.9388ZM58.453 29.7008H59.453V30.7008H58.453V29.7008ZM50.9923 29.7008H49.9923V28.7008H50.9923V29.7008ZM50.9923 36.4631H51.9923V37.4631H50.9923V36.4631ZM44.8984 36.4631H43.8984V35.4631H44.8984V36.4631ZM44.8984 43.2247H45.8984V44.2247H44.8984V43.2247ZM39.8651 43.2247H38.8651V42.2247H39.8651V43.2247ZM39.8651 49.9866H40.8651V50.9866H39.8651V49.9866ZM35.5755 49.9866H34.5755V48.9866H35.5755V49.9866ZM35.5755 56.7486H36.5755V57.7486H35.5755V56.7486ZM32.0867 56.7486H31.0867V55.7486H32.0867V56.7486ZM32.0867 63.5106H33.0867V64.5106H32.0867V63.5106ZM29.1698 63.5106H28.1698V62.5106H29.1698V63.5106ZM29.1698 70.2725H30.1698V71.2725H29.1698V70.2725ZM26.8822 70.2725H25.8822V69.2725H26.8822V70.2725ZM26.8822 77.0344H27.8822V78.0344H26.8822V77.0344ZM25.0518 77.0344H24.0518V76.0344H25.0518V77.0344ZM25.0518 83.7964H26.0518V84.7964H25.0518V83.7964ZM0.00105598 83.7964H-0.998944V82.7964H0.00105598V83.7964ZM271 399.204H272V400.204H271V399.204ZM245.949 399.204H244.949V398.204H245.949V399.204ZM245.949 405.966H246.949V406.966H245.949V405.966ZM244.119 405.966H243.119V404.966H244.119V405.966ZM244.119 412.727H245.119V413.727H244.119V412.727ZM241.831 412.727H240.831V411.727H241.831V412.727ZM241.831 419.489H242.831V420.489H241.831V419.489ZM238.914 419.489H237.914V418.489H238.914V419.489ZM238.914 426.251H239.914V427.251H238.914V426.251ZM235.426 426.251H234.426V425.251H235.426V426.251ZM235.426 433.013H236.426V434.013H235.426V433.013ZM231.136 433.013H230.136V432.013H231.136V433.013ZM231.136 439.775H232.136V440.775H231.136V439.775ZM226.103 439.775H225.103V438.775H226.103V439.775ZM226.103 446.537H227.103V447.537H226.103V446.537ZM220.008 446.537H219.008V445.537H220.008V446.537ZM220.008 453.299H221.008V454.299H220.008V453.299ZM212.548 453.299H211.548V452.299H212.548V453.299ZM212.548 460.061H213.548V461.061H212.548V460.061ZM203.397 460.061H202.397V459.061H203.397V460.061ZM203.397 466.823H204.397V467.823H203.397V466.823ZM192.648 466.823H191.648V465.823H192.648V466.823ZM192.648 473.585H193.648V474.585H192.648V473.585ZM181.055 473.585H180.055V472.585H181.055V473.585ZM181.055 478.297H182.055V479.297H181.055V478.297ZM168.387 478.297H167.387V477.297H168.387V478.297ZM168.387 481.719H169.387V482.719H168.387V481.719ZM155.286 481.719H154.286V480.719H155.286V481.719ZM155.286 483H156.286V484H155.286V483ZM115.715 483V484H114.715V483H115.715ZM115.715 481.719V480.719H116.715V481.719H115.715ZM102.615 481.719V482.719H101.615V481.719H102.615ZM102.615 478.297V477.297H103.615V478.297H102.615ZM89.9464 478.297V479.297H88.9464V478.297H89.9464ZM89.9464 473.585V472.585H90.9464V473.585H89.9464ZM78.3532 473.585V474.585H77.3532V473.585H78.3532ZM78.3532 466.823V465.823H79.3532V466.823H78.3532ZM67.6043 466.823V467.823H66.6043V466.823H67.6043ZM67.6043 460.061V459.061H68.6043V460.061H67.6043ZM58.453 460.061V461.061H57.453V460.061H58.453ZM58.453 453.299V452.299H59.453V453.299H58.453ZM50.9923 453.299V454.299H49.9923V453.299H50.9923ZM50.9923 446.537V445.537H51.9923V446.537H50.9923ZM44.8984 446.537V447.537H43.8984V446.537H44.8984ZM44.8984 439.775V438.775H45.8984V439.775H44.8984ZM39.8651 439.775V440.775H38.8651V439.775H39.8651ZM39.8651 433.013V432.013H40.8651V433.013H39.8651ZM35.5755 433.013V434.013H34.5755V433.013H35.5755ZM35.5755 426.251V425.251H36.5755V426.251H35.5755ZM32.0867 426.251V427.251H31.0867V426.251H32.0867ZM32.0867 419.489V418.489H33.0867V419.489H32.0867ZM29.1698 419.489V420.489H28.1698V419.489H29.1698ZM29.1698 412.727V411.727H30.1698V412.727H29.1698ZM26.8822 412.727V413.727H25.8822V412.727H26.8822ZM26.8822 405.966V404.966H27.8822V405.966H26.8822ZM25.0518 405.966V406.966H24.0518V405.966H25.0518ZM25.0518 399.204V398.204H26.0518V399.204H25.0518ZM0.00105598 399.204V400.204H-0.998944V399.204H0.00105598ZM270 97.3203V83.7964H272V97.3203H270ZM271 84.7964H257.445V82.7964H271V84.7964ZM257.445 84.7964H247.322V82.7964H257.445V84.7964ZM247.322 84.7964H245.949V82.7964H247.322V84.7964ZM244.949 83.7964V77.0344H246.949V83.7964H244.949ZM245.949 78.0344H244.119V76.0344H245.949V78.0344ZM243.119 77.0344V70.2725H245.119V77.0344H243.119ZM244.119 71.2725H241.831V69.2725H244.119V71.2725ZM240.831 70.2725V63.5106H242.831V70.2725H240.831ZM241.831 64.5106H238.914V62.5106H241.831V64.5106ZM237.914 63.5106V56.7486H239.914V63.5106H237.914ZM238.914 57.7486H235.426V55.7486H238.914V57.7486ZM234.426 56.7486V49.9866H236.426V56.7486H234.426ZM235.426 50.9866H231.136V48.9866H235.426V50.9866ZM230.136 49.9866V43.2247H232.136V49.9866H230.136ZM231.136 44.2247H226.103V42.2247H231.136V44.2247ZM225.103 43.2247V36.4631H227.103V43.2247H225.103ZM226.103 37.4631H220.008V35.4631H226.103V37.4631ZM219.008 36.4631V29.7008H221.008V36.4631H219.008ZM220.008 30.7008H212.548V28.7008H220.008V30.7008ZM211.548 29.7008V22.9388H213.548V29.7008H211.548ZM212.548 23.9388H203.397V21.9388H212.548V23.9388ZM202.397 22.9388V16.1772H204.397V22.9388H202.397ZM203.397 17.1772H192.648V15.1772H203.397V17.1772ZM191.648 16.1772V9.41528H193.648V16.1772H191.648ZM192.648 10.4153H181.055V8.41528H192.648V10.4153ZM180.055 9.41528V4.70258H182.055V9.41528H180.055ZM181.055 5.70258H168.387V3.70258H181.055V5.70258ZM167.387 4.70258V1.28049H169.387V4.70258H167.387ZM168.387 2.28049H155.286V0.280487H168.387V2.28049ZM154.286 1.28049V0H156.286V1.28049H154.286ZM155.286 1H142.318V-1H155.286V1ZM142.318 1H142.238V-1H142.318V1ZM142.238 1H141.732V-1H142.238V1ZM141.732 1H129.27V-1H141.732V1ZM129.27 1H128.763V-1H129.27V1ZM128.763 1H128.683V-1H128.763V1ZM128.683 1H115.715V-1H128.683V1ZM116.715 0V1.28049H114.715V0H116.715ZM115.715 2.28049H102.615V0.280487H115.715V2.28049ZM103.615 1.28049V4.70258H101.615V1.28049H103.615ZM102.615 5.70258H89.9464V3.70258H102.615V5.70258ZM90.9464 4.70258V9.41528H88.9464V4.70258H90.9464ZM89.9464 10.4153H78.3532V8.41528H89.9464V10.4153ZM79.3532 9.41528V16.1772H77.3532V9.41528H79.3532ZM78.3532 17.1772H67.6043V15.1772H78.3532V17.1772ZM68.6043 16.1772V22.9388H66.6043V16.1772H68.6043ZM67.6043 23.9388H58.453V21.9388H67.6043V23.9388ZM59.453 22.9388V29.7008H57.453V22.9388H59.453ZM58.453 30.7008H50.9923V28.7008H58.453V30.7008ZM51.9923 29.7008V36.4631H49.9923V29.7008H51.9923ZM50.9923 37.4631H44.8984V35.4631H50.9923V37.4631ZM45.8984 36.4631V43.2247H43.8984V36.4631H45.8984ZM44.8984 44.2247H39.8651V42.2247H44.8984V44.2247ZM40.8651 43.2247V49.9866H38.8651V43.2247H40.8651ZM39.8651 50.9866H35.5755V48.9866H39.8651V50.9866ZM36.5755 49.9866V56.7486H34.5755V49.9866H36.5755ZM35.5755 57.7486H32.0867V55.7486H35.5755V57.7486ZM33.0867 56.7486V63.5106H31.0867V56.7486H33.0867ZM32.0867 64.5106H29.1698V62.5106H32.0867V64.5106ZM30.1698 63.5106V70.2725H28.1698V63.5106H30.1698ZM29.1698 71.2725H26.8822V69.2725H29.1698V71.2725ZM27.8822 70.2725V77.0344H25.8822V70.2725H27.8822ZM26.8822 78.0344H25.0518V76.0344H26.8822V78.0344ZM26.0518 77.0344V83.7964H24.0518V77.0344H26.0518ZM25.0518 84.7964H23.679V82.7964H25.0518V84.7964ZM23.679 84.7964H13.556V82.7964H23.679V84.7964ZM13.556 84.7964H0.00105598V82.7964H13.556V84.7964ZM1.00106 83.7964V97.3203H-0.998944V83.7964H1.00106ZM272 385.68V399.204H270V385.68H272ZM271 400.204H257.445V398.204H271V400.204ZM257.445 400.204H247.322V398.204H257.445V400.204ZM247.322 400.204H245.949V398.204H247.322V400.204ZM246.949 399.204V405.966H244.949V399.204H246.949ZM245.949 406.966H244.119V404.966H245.949V406.966ZM245.119 405.966V412.727H243.119V405.966H245.119ZM244.119 413.727H241.831V411.727H244.119V413.727ZM242.831 412.727V419.489H240.831V412.727H242.831ZM241.831 420.489H238.914V418.489H241.831V420.489ZM239.914 419.489V426.251H237.914V419.489H239.914ZM238.914 427.251H235.426V425.251H238.914V427.251ZM236.426 426.251V433.013H234.426V426.251H236.426ZM235.426 434.013H231.136V432.013H235.426V434.013ZM232.136 433.013V439.775H230.136V433.013H232.136ZM231.136 440.775H226.103V438.775H231.136V440.775ZM227.103 439.775V446.537H225.103V439.775H227.103ZM226.103 447.537H220.008V445.537H226.103V447.537ZM221.008 446.537V453.299H219.008V446.537H221.008ZM220.008 454.299H212.548V452.299H220.008V454.299ZM213.548 453.299V460.061H211.548V453.299H213.548ZM212.548 461.061H203.397V459.061H212.548V461.061ZM204.397 460.061V466.823H202.397V460.061H204.397ZM203.397 467.823H192.648V465.823H203.397V467.823ZM193.648 466.823V473.585H191.648V466.823H193.648ZM192.648 474.585H181.055V472.585H192.648V474.585ZM182.055 473.585V478.297H180.055V473.585H182.055ZM181.055 479.297H168.387V477.297H181.055V479.297ZM169.387 478.297V481.719H167.387V478.297H169.387ZM168.387 482.719H155.286V480.719H168.387V482.719ZM156.286 481.719V483H154.286V481.719H156.286ZM155.286 484H142.318V482H155.286V484ZM142.318 484H142.238V482H142.318V484ZM142.238 484H141.732V482H142.238V484ZM141.732 484H129.27V482H141.732V484ZM129.27 484H128.763V482H129.27V484ZM128.763 484H128.683V482H128.763V484ZM128.683 484H115.715V482H128.683V484ZM114.715 483V481.719H116.715V483H114.715ZM115.715 482.719H102.615V480.719H115.715V482.719ZM101.615 481.719V478.297H103.615V481.719H101.615ZM102.615 479.297H89.9464V477.297H102.615V479.297ZM88.9464 478.297V473.585H90.9464V478.297H88.9464ZM89.9464 474.585H78.3532V472.585H89.9464V474.585ZM77.3532 473.585V466.823H79.3532V473.585H77.3532ZM78.3532 467.823H67.6043V465.823H78.3532V467.823ZM66.6043 466.823V460.061H68.6043V466.823H66.6043ZM67.6043 461.061H58.453V459.061H67.6043V461.061ZM57.453 460.061V453.299H59.453V460.061H57.453ZM58.453 454.299H50.9923V452.299H58.453V454.299ZM49.9923 453.299V446.537H51.9923V453.299H49.9923ZM50.9923 447.537H44.8984V445.537H50.9923V447.537ZM43.8984 446.537V439.775H45.8984V446.537H43.8984ZM44.8984 440.775H39.8651V438.775H44.8984V440.775ZM38.8651 439.775V433.013H40.8651V439.775H38.8651ZM39.8651 434.013H35.5755V432.013H39.8651V434.013ZM34.5755 433.013V426.251H36.5755V433.013H34.5755ZM35.5755 427.251H32.0867V425.251H35.5755V427.251ZM31.0867 426.251V419.489H33.0867V426.251H31.0867ZM32.0867 420.489H29.1698V418.489H32.0867V420.489ZM28.1698 419.489V412.727H30.1698V419.489H28.1698ZM29.1698 413.727H26.8822V411.727H29.1698V413.727ZM25.8822 412.727V405.966H27.8822V412.727H25.8822ZM26.8822 406.966H25.0518V404.966H26.8822V406.966ZM24.0518 405.966V399.204H26.0518V405.966H24.0518ZM25.0518 400.204H23.679V398.204H25.0518V400.204ZM23.679 400.204H13.556V398.204H23.679V400.204ZM13.556 400.204H0.00105598V398.204H13.556V400.204ZM-0.998944 399.204V385.68H1.00106V399.204H-0.998944ZM270 385.68V97.3203H272V385.68H270ZM-0.998944 385.68V97.3203H1.00106V385.68H-0.998944Z" fill="#1C1B79" mask="url(#path-1-inside-1_4304_5413)"/>
</svg>
