<svg width="49" height="31" viewBox="0 0 49 31" fill="none" xmlns="http://www.w3.org/2000/svg">
<path d="M4.08454 22.3177H12.2459V25.0441H9.52856V27.7706H6.80609V25.0441H4.08454V22.3177ZM14.9692 22.318H17.6967V22.3177H23.1391V25.0409H20.4158V27.7706H17.6925L16.3309 27.7687V25.0409H14.9692V22.318ZM23.1391 16.8552H25.8624V16.8652H25.8622V19.59H23.1391V16.8552ZM34.0303 22.3177V25.0446H31.3079V27.7706H28.5878V25.0479H25.8645L25.8624 25.0432V22.3177H34.0303ZM36.7536 22.3177H44.9155V25.045L44.9162 25.0479V27.7706H39.4765V25.0446H36.7536V22.3177ZM1.36097 30.4991L4.08408 30.4983V30.5H9.52942V30.4983H14.9692V30.5H17.6925V30.4983L31.3089 30.5V30.4983H34.0303V30.5H36.7555V30.4983H42.1987V30.5H47.6371L47.6383 14.1374H49V11.4097H47.6387V5.95891H44.9154V7.30753H43.5538V10.0353H44.9154V11.3992H43.5551V10.0505H40.8318V11.3992H39.4569V14.1269H40.8318V15.4908H43.5551V14.1269H44.9154V14.1365H44.9151V16.8643H44.9154V16.8662H43.5499V19.59H36.7536V16.8652H34.0303V19.59H29.9471V16.8652H28.5857V14.1375L25.8624 14.1274V8.68324H27.2262V11.3997H29.9494V8.68324H31.3089V5.95549H29.9473V4.59165H27.224V5.95549H25.8624V4.59165H27.224V1.86385H25.8624V0.5H23.1391V1.86385H21.7774V4.59165H23.1391V5.95549H21.7774V4.59165H19.0542V5.95549H17.6925V8.68324H19.0645V11.3997H21.7878V8.68324H23.1391V14.1274L20.4158 14.1375V16.8652H17.7029V19.59L14.9754 19.5903V18.2301H12.2521L12.2509 19.5903L6.80695 19.59L6.80609 16.8634H4.08454V14.1379H5.44448V15.5018H8.16776V14.1379H9.52942V11.4101H8.16776V10.0458H5.44598V11.4081H4.08605V10.0456H5.44575V7.31974H4.08454V5.95584H1.36126L1.36121 11.4097H0V14.1374H1.36121L1.36097 30.4991Z" fill="white"/>
</svg>
