<svg width="768" height="1200" viewBox="0 0 768 1200" fill="none" xmlns="http://www.w3.org/2000/svg">
<mask id="path-1-inside-1_6414_3361" fill="white">
<path d="M768 141.229V1058.77H712.758V1070.17H708.722V1081.56H703.677V1092.96H697.245V1104.36H689.551V1115.75H680.092V1127.15H668.993V1138.55H655.554V1149.94H639.102V1161.34H618.922V1172.73H595.219V1184.13H569.654V1192.07H541.717V1197.84H512.829V1200H255.173V1197.84H226.286V1192.07H198.349V1184.13H172.784V1172.73H149.081V1161.34H128.9V1149.94H112.448V1138.55H99.0096V1127.15H87.9104V1115.75H78.4509V1104.36H70.7573V1092.96H64.3251V1081.56H59.2804V1070.17H55.244V1058.77H0.00232864L0.00232864 1038.8L0.00232915 164.022L0.00232915 141.229H55.244V129.833H59.2804V118.436H64.3251V107.04H70.7573V95.6433H78.4509V84.2468H87.9104V72.8503H99.0096V61.4544H112.448V50.0572H128.9V38.6608H149.081V27.2649H172.784V15.8684H198.349V7.92569H226.286V2.15815H255.173V0L512.829 0V2.15815H541.717V7.92569H569.654V15.8684H595.219V27.2649H618.922V38.6608H639.102V50.0572H655.554V61.4544H668.993V72.8503H680.092V84.2468H689.551V95.6433H697.245V107.04H703.677V118.436H708.722V129.833H712.758V141.229H768Z"/>
</mask>
<path d="M768 141.229V1058.77H712.758V1070.17H708.722V1081.56H703.677V1092.96H697.245V1104.36H689.551V1115.75H680.092V1127.15H668.993V1138.55H655.554V1149.94H639.102V1161.34H618.922V1172.73H595.219V1184.13H569.654V1192.07H541.717V1197.84H512.829V1200H255.173V1197.84H226.286V1192.07H198.349V1184.13H172.784V1172.73H149.081V1161.34H128.9V1149.94H112.448V1138.55H99.0096V1127.15H87.9104V1115.75H78.4509V1104.36H70.7573V1092.96H64.3251V1081.56H59.2804V1070.17H55.244V1058.77H0.00232864L0.00232864 1038.8L0.00232915 164.022L0.00232915 141.229H55.244V129.833H59.2804V118.436H64.3251V107.04H70.7573V95.6433H78.4509V84.2468H87.9104V72.8503H99.0096V61.4544H112.448V50.0572H128.9V38.6608H149.081V27.2649H172.784V15.8684H198.349V7.92569H226.286V2.15815H255.173V0L512.829 0V2.15815H541.717V7.92569H569.654V15.8684H595.219V27.2649H618.922V38.6608H639.102V50.0572H655.554V61.4544H668.993V72.8503H680.092V84.2468H689.551V95.6433H697.245V107.04H703.677V118.436H708.722V129.833H712.758V141.229H768Z" fill="#1C1B79"/>
<path d="M0.00232915 163.522H0L0 164.522H0.00232915L0.00232915 163.522ZM0.00232864 1038.3H0L0 1039.3H0.00232864L0.00232864 1038.3ZM768 141.229H769V140.229H768V141.229ZM712.758 141.229H711.758V142.229H712.758V141.229ZM712.758 129.833H713.758V128.833H712.758V129.833ZM708.722 129.833H707.722V130.833H708.722V129.833ZM708.722 118.436H709.722V117.436H708.722V118.436ZM703.677 118.436H702.677V119.436H703.677V118.436ZM703.677 107.04H704.677V106.04H703.677V107.04ZM697.245 107.04H696.245V108.04H697.245V107.04ZM697.245 95.6433H698.245V94.6433H697.245V95.6433ZM689.551 95.6433H688.551V96.6433H689.551V95.6433ZM689.551 84.2468H690.551V83.2468H689.551V84.2468ZM680.092 84.2468H679.092V85.2468H680.092V84.2468ZM680.092 72.8503H681.092V71.8503H680.092V72.8503ZM668.993 72.8503H667.993V73.8503H668.993V72.8503ZM668.993 61.4544H669.993V60.4544H668.993V61.4544ZM655.554 61.4544H654.554V62.4544H655.554V61.4544ZM655.554 50.0572H656.554V49.0572H655.554V50.0572ZM639.102 50.0572H638.102V51.0572H639.102V50.0572ZM639.102 38.6608H640.102V37.6608H639.102V38.6608ZM618.922 38.6608H617.922V39.6608H618.922V38.6608ZM618.922 27.2649H619.922V26.2649H618.922V27.2649ZM595.219 27.2649H594.219V28.2649H595.219V27.2649ZM595.219 15.8684H596.219V14.8684H595.219V15.8684ZM569.654 15.8684H568.654V16.8684H569.654V15.8684ZM569.654 7.92569H570.654V6.92569H569.654V7.92569ZM541.717 7.92569H540.717V8.92569H541.717V7.92569ZM541.717 2.15815H542.717V1.15815H541.717V2.15815ZM512.829 2.15815H511.829V3.15815H512.829V2.15815ZM512.829 0L513.829 0V-1H512.829V0ZM255.173 0V-1H254.173V0L255.173 0ZM255.173 2.15815V3.15815H256.173V2.15815H255.173ZM226.286 2.15815V1.15815H225.286V2.15815H226.286ZM226.286 7.92569V8.92569H227.286V7.92569H226.286ZM198.349 7.92569V6.92569H197.349V7.92569H198.349ZM198.349 15.8684V16.8684H199.349V15.8684H198.349ZM172.784 15.8684V14.8684H171.784V15.8684H172.784ZM172.784 27.2649V28.2649H173.784V27.2649H172.784ZM149.081 27.2649V26.2649H148.081V27.2649H149.081ZM149.081 38.6608V39.6608H150.081V38.6608H149.081ZM128.9 38.6608V37.6608H127.9V38.6608H128.9ZM128.9 50.0572V51.0572H129.9V50.0572H128.9ZM112.448 50.0572V49.0572H111.448V50.0572H112.448ZM112.448 61.4544V62.4544H113.448V61.4544H112.448ZM99.0096 61.4544V60.4544H98.0096V61.4544H99.0096ZM99.0096 72.8503V73.8503H100.01V72.8503H99.0096ZM87.9104 72.8503V71.8503H86.9104V72.8503H87.9104ZM87.9104 84.2468V85.2468H88.9104V84.2468H87.9104ZM78.4509 84.2468V83.2468H77.4509V84.2468H78.4509ZM78.4509 95.6433V96.6433H79.4509V95.6433H78.4509ZM70.7573 95.6433V94.6433H69.7573V95.6433H70.7573ZM70.7573 107.04V108.04H71.7573V107.04H70.7573ZM64.3251 107.04V106.04H63.3251V107.04H64.3251ZM64.3251 118.436V119.436H65.3251V118.436H64.3251ZM59.2804 118.436V117.436H58.2804V118.436H59.2804ZM59.2804 129.833V130.833H60.2804V129.833H59.2804ZM55.244 129.833V128.833H54.244V129.833H55.244ZM55.244 141.229V142.229H56.244V141.229H55.244ZM0.00232915 141.229L0.00232915 140.229H-0.997671V141.229H0.00232915ZM0.00232915 164.022H1.00233H0.00232915ZM768 1058.77V1059.77H769V1058.77H768ZM712.758 1058.77V1057.77H711.758V1058.77H712.758ZM712.758 1070.17V1071.17H713.758V1070.17H712.758ZM708.722 1070.17V1069.17H707.722V1070.17H708.722ZM708.722 1081.56V1082.56H709.722V1081.56H708.722ZM703.677 1081.56V1080.56H702.677V1081.56H703.677ZM703.677 1092.96V1093.96H704.677V1092.96H703.677ZM697.245 1092.96V1091.96H696.245V1092.96H697.245ZM697.245 1104.36V1105.36H698.245V1104.36H697.245ZM689.551 1104.36V1103.36H688.551V1104.36H689.551ZM689.551 1115.75V1116.75H690.551V1115.75H689.551ZM680.092 1115.75V1114.75H679.092V1115.75H680.092ZM680.092 1127.15V1128.15H681.092V1127.15H680.092ZM668.993 1127.15V1126.15H667.993V1127.15H668.993ZM668.993 1138.55V1139.55H669.993V1138.55H668.993ZM655.554 1138.55V1137.55H654.554V1138.55H655.554ZM655.554 1149.94V1150.94H656.554V1149.94H655.554ZM639.102 1149.94V1148.94H638.102V1149.94H639.102ZM639.102 1161.34V1162.34H640.102V1161.34H639.102ZM618.922 1161.34V1160.34H617.922V1161.34H618.922ZM618.922 1172.73V1173.73H619.922V1172.73H618.922ZM595.219 1172.73V1171.73H594.219V1172.73H595.219ZM595.219 1184.13V1185.13H596.219V1184.13H595.219ZM569.654 1184.13V1183.13H568.654V1184.13H569.654ZM569.654 1192.07V1193.07H570.654V1192.07H569.654ZM541.717 1192.07V1191.07H540.717V1192.07H541.717ZM541.717 1197.84V1198.84H542.717V1197.84H541.717ZM512.829 1197.84V1196.84H511.829V1197.84H512.829ZM512.829 1200V1201H513.829V1200H512.829ZM255.173 1200H254.173V1201H255.173V1200ZM255.173 1197.84H256.173V1196.84H255.173V1197.84ZM226.286 1197.84H225.286V1198.84H226.286V1197.84ZM226.286 1192.07H227.286V1191.07H226.286V1192.07ZM198.349 1192.07H197.349V1193.07H198.349V1192.07ZM198.349 1184.13H199.349V1183.13H198.349V1184.13ZM172.784 1184.13H171.784V1185.13H172.784V1184.13ZM172.784 1172.73H173.784V1171.73H172.784V1172.73ZM149.081 1172.73H148.081V1173.73H149.081V1172.73ZM149.081 1161.34H150.081V1160.34H149.081V1161.34ZM128.9 1161.34H127.9V1162.34H128.9V1161.34ZM128.9 1149.94H129.9V1148.94H128.9V1149.94ZM112.448 1149.94H111.448V1150.94H112.448V1149.94ZM112.448 1138.55H113.448V1137.55H112.448V1138.55ZM99.0096 1138.55H98.0096V1139.55H99.0096V1138.55ZM99.0096 1127.15H100.01V1126.15H99.0096V1127.15ZM87.9104 1127.15H86.9104V1128.15H87.9104V1127.15ZM87.9104 1115.75H88.9104V1114.75H87.9104V1115.75ZM78.4509 1115.75H77.4509V1116.75H78.4509V1115.75ZM78.4509 1104.36H79.4509V1103.36H78.4509V1104.36ZM70.7573 1104.36H69.7573V1105.36H70.7573V1104.36ZM70.7573 1092.96H71.7573V1091.96H70.7573V1092.96ZM64.3251 1092.96H63.3251V1093.96H64.3251V1092.96ZM64.3251 1081.56H65.3251V1080.56H64.3251V1081.56ZM59.2804 1081.56H58.2804V1082.56H59.2804V1081.56ZM59.2804 1070.17H60.2804V1069.17H59.2804V1070.17ZM55.244 1070.17H54.244V1071.17H55.244V1070.17ZM55.244 1058.77H56.244V1057.77H55.244V1058.77ZM0.00232864 1058.77H-0.997671V1059.77H0.00232864L0.00232864 1058.77ZM0.00232864 1038.8H-0.997671H0.00232864ZM713.758 141.229V129.833H711.758V141.229H713.758ZM712.758 128.833H708.722V130.833H712.758V128.833ZM709.722 129.833V118.436H707.722V129.833H709.722ZM708.722 117.436H703.677V119.436H708.722V117.436ZM704.677 118.436V107.04H702.677V118.436H704.677ZM703.677 106.04H697.245V108.04H703.677V106.04ZM698.245 107.04V95.6433H696.245V107.04H698.245ZM697.245 94.6433H689.551V96.6433H697.245V94.6433ZM690.551 95.6433V84.2468H688.551V95.6433H690.551ZM689.551 83.2468H680.092V85.2468H689.551V83.2468ZM681.092 84.2468V72.8503H679.092V84.2468H681.092ZM680.092 71.8503H668.993V73.8503H680.092V71.8503ZM669.993 72.8503V61.4544H667.993V72.8503H669.993ZM668.993 60.4544H655.554V62.4544H668.993V60.4544ZM656.554 61.4544V50.0572H654.554V61.4544H656.554ZM655.554 49.0572H639.102V51.0572H655.554V49.0572ZM640.102 50.0572V38.6608H638.102V50.0572H640.102ZM639.102 37.6608H618.922V39.6608H639.102V37.6608ZM619.922 38.6608V27.2649H617.922V38.6608H619.922ZM618.922 26.2649H595.219V28.2649H618.922V26.2649ZM596.219 27.2649V15.8684H594.219V27.2649H596.219ZM595.219 14.8684H569.654V16.8684H595.219V14.8684ZM570.654 15.8684V7.92569H568.654V15.8684H570.654ZM569.654 6.92569H541.717V8.92569H569.654V6.92569ZM542.717 7.92569V2.15815H540.717V7.92569H542.717ZM541.717 1.15815L512.829 1.15815V3.15815H541.717V1.15815ZM513.829 2.15815V0L511.829 0V2.15815H513.829ZM254.173 0V2.15815H256.173V0L254.173 0ZM255.173 1.15815L226.286 1.15815V3.15815H255.173V1.15815ZM225.286 2.15815V7.92569H227.286V2.15815H225.286ZM226.286 6.92569H198.349V8.92569H226.286V6.92569ZM197.349 7.92569V15.8684H199.349V7.92569H197.349ZM198.349 14.8684H172.784V16.8684H198.349V14.8684ZM171.784 15.8684V27.2649H173.784V15.8684H171.784ZM172.784 26.2649H149.081V28.2649H172.784V26.2649ZM148.081 27.2649V38.6608H150.081V27.2649H148.081ZM149.081 37.6608H128.9V39.6608H149.081V37.6608ZM127.9 38.6608V50.0572H129.9V38.6608H127.9ZM128.9 49.0572H112.448V51.0572H128.9V49.0572ZM111.448 50.0572V61.4544H113.448V50.0572H111.448ZM112.448 60.4544H99.0096V62.4544H112.448V60.4544ZM98.0096 61.4544V72.8503H100.01V61.4544H98.0096ZM99.0096 71.8503H87.9104V73.8503H99.0096V71.8503ZM86.9104 72.8503V84.2468H88.9104V72.8503H86.9104ZM87.9104 83.2468H78.4509V85.2468H87.9104V83.2468ZM77.4509 84.2468V95.6433H79.4509V84.2468H77.4509ZM78.4509 94.6433H70.7573V96.6433H78.4509V94.6433ZM69.7573 95.6433V107.04H71.7573V95.6433H69.7573ZM70.7573 106.04H64.3251V108.04H70.7573V106.04ZM63.3251 107.04V118.436H65.3251V107.04H63.3251ZM64.3251 117.436H59.2804V119.436H64.3251V117.436ZM58.2804 118.436V129.833H60.2804V118.436H58.2804ZM59.2804 128.833H55.244V130.833H59.2804V128.833ZM54.244 129.833V141.229H56.244V129.833H54.244ZM-0.997671 141.229L-0.997671 164.022H1.00233L1.00233 141.229H-0.997671ZM711.758 1058.77V1070.17H713.758V1058.77H711.758ZM712.758 1069.17H708.722V1071.17H712.758V1069.17ZM707.722 1070.17V1081.56H709.722V1070.17H707.722ZM708.722 1080.56H703.677V1082.56H708.722V1080.56ZM702.677 1081.56V1092.96H704.677V1081.56H702.677ZM703.677 1091.96H697.245V1093.96H703.677V1091.96ZM696.245 1092.96V1104.36H698.245V1092.96H696.245ZM697.245 1103.36H689.551V1105.36H697.245V1103.36ZM688.551 1104.36V1115.75H690.551V1104.36H688.551ZM689.551 1114.75H680.092V1116.75H689.551V1114.75ZM679.092 1115.75V1127.15H681.092V1115.75H679.092ZM680.092 1126.15H668.993V1128.15H680.092V1126.15ZM667.993 1127.15V1138.55H669.993V1127.15H667.993ZM668.993 1137.55H655.554V1139.55H668.993V1137.55ZM654.554 1138.55V1149.94H656.554V1138.55H654.554ZM655.554 1148.94H639.102V1150.94H655.554V1148.94ZM638.102 1149.94V1161.34H640.102V1149.94H638.102ZM639.102 1160.34H618.922V1162.34H639.102V1160.34ZM617.922 1161.34V1172.73H619.922V1161.34H617.922ZM618.922 1171.73H595.219V1173.73H618.922V1171.73ZM594.219 1172.73V1184.13H596.219V1172.73H594.219ZM595.219 1183.13H569.654V1185.13H595.219V1183.13ZM568.654 1184.13V1192.07H570.654V1184.13H568.654ZM569.654 1191.07H541.717V1193.07H569.654V1191.07ZM540.717 1192.07V1197.84H542.717V1192.07H540.717ZM541.717 1196.84H512.829V1198.84H541.717V1196.84ZM511.829 1197.84V1200H513.829V1197.84H511.829ZM256.173 1200V1197.84H254.173V1200H256.173ZM255.173 1196.84H226.286V1198.84H255.173V1196.84ZM227.286 1197.84V1192.07H225.286V1197.84H227.286ZM226.286 1191.07H198.349V1193.07H226.286V1191.07ZM199.349 1192.07V1184.13H197.349V1192.07H199.349ZM198.349 1183.13H172.784V1185.13H198.349V1183.13ZM173.784 1184.13V1172.73H171.784V1184.13H173.784ZM172.784 1171.73H149.081V1173.73H172.784V1171.73ZM150.081 1172.73V1161.34H148.081V1172.73H150.081ZM149.081 1160.34H128.9V1162.34H149.081V1160.34ZM129.9 1161.34V1149.94H127.9V1161.34H129.9ZM128.9 1148.94H112.448V1150.94H128.9V1148.94ZM113.448 1149.94V1138.55H111.448V1149.94H113.448ZM112.448 1137.55H99.0096V1139.55H112.448V1137.55ZM100.01 1138.55V1127.15H98.0096V1138.55H100.01ZM99.0096 1126.15H87.9104V1128.15H99.0096V1126.15ZM88.9104 1127.15V1115.75H86.9104V1127.15H88.9104ZM87.9104 1114.75H78.4509V1116.75H87.9104V1114.75ZM79.4509 1115.75V1104.36H77.4509V1115.75H79.4509ZM78.4509 1103.36H70.7573V1105.36H78.4509V1103.36ZM71.7573 1104.36V1092.96H69.7573V1104.36H71.7573ZM70.7573 1091.96H64.3251V1093.96H70.7573V1091.96ZM65.3251 1092.96V1081.56H63.3251V1092.96H65.3251ZM64.3251 1080.56H59.2804V1082.56H64.3251V1080.56ZM60.2804 1081.56V1070.17H58.2804V1081.56H60.2804ZM59.2804 1069.17H55.244V1071.17H59.2804V1069.17ZM56.244 1070.17V1058.77H54.244V1070.17H56.244ZM1.00233 1058.77L1.00233 1038.8H-0.997671L-0.997671 1058.77H1.00233ZM1.00233 1038.8L1.00233 164.022L-0.997671 164.022L-0.997671 1038.8L1.00233 1038.8ZM769 1058.77V141.229H767V1058.77H769ZM768 140.229H712.758V142.229H768V140.229ZM512.829 -1L255.173 -1V1L512.829 1V-1ZM55.244 140.229H0.00232915L0.00232915 142.229H55.244V140.229ZM768 1057.77H712.758V1059.77H768V1057.77ZM512.829 1199H255.173V1201H512.829V1199ZM55.244 1057.77H0.00232864L0.00232864 1059.77H55.244V1057.77Z" fill="white" mask="url(#path-1-inside-1_6414_3361)"/>
</svg>
